<?xml version="1.0" standalone="no"?>
<!DOCTYPE svg PUBLIC "-//W3C//DTD SVG 20010904//EN"
 "http://www.w3.org/TR/2001/REC-SVG-20010904/DTD/svg10.dtd">
<svg version="1.0" xmlns="http://www.w3.org/2000/svg"
 width="342.000000pt" height="342.000000pt" viewBox="0 0 342.000000 342.000000"
 preserveAspectRatio="xMidYMid meet">
<metadata>
Created by potrace 1.14, written by Peter Selinger 2001-2017
</metadata>
<g transform="translate(0.000000,342.000000) scale(0.100000,-0.100000)"
fill="#000000" stroke="none">
<path d="M2460 2802 l0 -237 -880 -880 -880 -880 -223 -1 c-122 -1 -229 -2
-237 -3 -13 -1 -15 -38 -15 -266 -1 -231 1 -265 15 -266 54 -3 512 -1 515 3 3
3 5 110 6 238 l0 233 433 433 433 432 416 -416 417 -417 0 -253 c0 -217 2
-252 15 -253 20 -1 445 -1 488 0 l32 1 0 265 c0 169 -4 265 -10 266 -5 1 -105
2 -220 3 l-210 1 -433 433 -433 433 415 414 414 415 239 2 238 3 0 265 0 265
-268 2 -267 2 0 -237z m450 -32 l0 -180 -182 0 -183 0 2 163 c0 89 2 170 2
180 1 15 17 17 181 17 l180 0 0 -180z m-2239 -2064 c0 -6 2 -86 2 -179 2 -141
0 -168 -13 -171 -8 -2 -89 -3 -180 -2 l-165 1 -3 180 -2 181 180 1 c127 0 180
-3 181 -11z m2237 -171 l-3 -180 -177 -1 c-98 0 -179 2 -179 5 -3 14 -5 347
-3 352 2 3 85 6 184 6 l180 -1 -2 -181z"/>
</g>
</svg>
